<svg xmlns="http://www.w3.org/2000/svg" version="1.1" xmlns:xlink="http://www.w3.org/1999/xlink" xmlns:svgjs="http://svgjs.dev/svgjs" width="1440" height="720" preserveAspectRatio="none" viewBox="0 0 1440 720"><g mask="url(&quot;#SvgjsMask1007&quot;)" fill="none"><rect width="1440" height="720" x="0" y="0" fill="rgba(123, 184, 248, 1)"></rect><path d="M0 61.64C12.63 23.76 22.42 12.87 60 0C112.42 -17.95 120 0 180 0C270 0 270 0 360 0C450 0 450 0 540 0C600.75 0 632.79 -36.11 661.5 0C704.33 53.89 659.8 97.13 683.08 180C689.05 201.25 700.26 208.24 720 208.24C746.41 208.24 770.78 206.61 775.38 180C788.78 102.49 721.29 50.13 756 0C783.6 -39.87 828 0 900 0C978 0 981.67 -9.29 1056 0C1071.67 1.96 1066.29 22.5 1080 22.5C1101.51 22.5 1101.36 3.14 1126.45 0C1191.36 -8.11 1193.22 0 1260 0C1350 0 1395 -45 1440 0C1485 45 1440 90 1440 180C1440 235.8 1471.53 256.75 1440 291.6C1390.1 346.75 1277.14 318.9 1277.14 360C1277.14 404.92 1381.65 399.15 1440 463.64C1463.08 489.15 1440 501.82 1440 540C1440 630 1485 675 1440 720C1395 765 1350 720 1260 720C1170 720 1170 720 1080 720C990 720 990 720 900 720C810 720 810 720 720 720C630 720 630 720 540 720C450 720 450 720 360 720C270 720 270 720 180 720C108.62 720 73.81 759.62 37.24 720C-9.26 669.62 31.13 624.73 13.85 540C12.51 533.42 0.51 544.01 0 537.39C-6.42 454.01 0 448.69 0 360C0 270 0 270 0 180C0 120.82 -17.37 113.76 0 61.64" stroke="rgba(182, 219, 139, 1)" stroke-width="2"></path><path d="M360 143.39C324.35 143.39 285.52 163.95 285.52 180C285.52 195.26 323.68 206.02 360 206.02C386.04 206.02 410.23 194.92 410.23 180C410.23 163.61 386.7 143.39 360 143.39" stroke="rgba(117, 127, 235, 1)" stroke-width="2"></path><path d="M540 330.81C531.53 330.81 529.59 344.29 525.97 360C505.5 448.88 488.04 451.31 491.83 540C495.06 615.66 487.48 662.33 540 688.7C601.56 719.61 643.88 695.42 720 654.55C782.34 621.07 816.92 586.42 816.92 540C816.92 507.04 763.12 526.24 720 495.79C635.68 436.24 638.6 430.17 562.04 360C548.6 347.68 549.57 330.81 540 330.81" stroke="rgba(255, 255, 255, 1)" stroke-width="2"></path><path d="M1080 356.84C1075.66 356.84 1071.82 357.28 1071.82 360C1071.82 364.15 1073.86 370.59 1080 370.59C1107.95 370.59 1140 363.46 1140 360C1140 356.59 1109.75 356.84 1080 356.84" stroke="rgba(255, 255, 255, 1)" stroke-width="2"></path><path d="M0 123.29C48.01 123.29 91.66 129.56 133.55 180C181.66 237.92 128.1 321.61 180 340C241.33 361.73 277.61 254.51 360 260.24C421.38 264.51 452.36 297.99 467.53 360C486.58 437.87 427.52 450.2 428.45 540C429.39 630.2 492.64 663.8 471.27 720C458.42 753.8 415.63 720 360 720C275 720 218.98 762.93 190 720C158.23 672.93 241.06 629.01 238.5 540C236.06 455.44 235.18 388.55 180 372.86C115.93 354.64 58.23 476.33 0 472.17C-31.77 469.9 0 416.09 0 360C0 270 0 270 0 180C0 151.64 -18.76 123.29 0 123.29" stroke="rgba(46, 111, 217, 1)" stroke-width="2"></path><path d="M180 136.36C127.7 121.73 120 48.6 120 0C120 -19.58 150 0 180 0C270 0 270 0 360 0C450 0 450 0 540 0C544.5 0 548.34 -4.26 549 0C562.19 85.74 571.37 94.43 567.69 180C566.87 199.02 553.49 209.19 540 209.19C527.09 209.19 529.94 191.89 514.88 180C439.94 120.85 443.46 78 360 67.12C276.02 56.18 247.7 155.29 180 136.36" stroke="rgba(51, 121, 194, 0.58)" stroke-width="2"></path><path d="M900 142.94C858.75 74.15 825.23 48.83 825.23 0C825.23 -22.64 862.62 0 900 0C940.5 0 947.36 -17.35 981 0C1037.36 29.06 1020.04 73.47 1080 92.81C1159.54 118.47 1170.48 84.12 1260 90C1350.48 95.95 1373.29 83.12 1440 116.47C1463.29 128.12 1440 148.24 1440 180C1440 190.8 1449.64 200.83 1440 201.6C1359.64 208.03 1345.65 176.25 1260 194.4C1165.65 214.39 1166.49 281.7 1080 277.89C1003.07 274.5 1003.37 232.64 933.16 180C913.37 165.17 912.72 164.15 900 142.94" stroke="rgba(46, 111, 217, 1)" stroke-width="2"></path><path d="M653.88 360C653.88 329.15 681.19 296.47 720 296.47C787.88 296.47 867.27 329.67 867.27 360C867.27 389.85 788.73 416.84 720 416.84C682.04 416.84 653.88 389.34 653.88 360" stroke="rgba(46, 111, 217, 1)" stroke-width="2"></path><path d="M776.67 720C776.67 680.34 838.02 586.8 900 586.8C962.52 586.8 1025.66 680.5 1025.66 720C1025.66 747.1 962.83 720 900 720C838.34 720 776.67 746.94 776.67 720" stroke="rgba(182, 219, 139, 1)" stroke-width="2"></path><path d="M1125.71 720C1125.71 677.41 1179.42 600.69 1260 576.61C1336.57 553.73 1380.12 578.39 1440 626.09C1470.12 650.09 1470.86 703.9 1440 720C1380.86 750.86 1350 720 1260 720C1192.86 720 1125.71 749.11 1125.71 720" stroke="rgba(51, 121, 194, 0.58)" stroke-width="2"></path><path d="M900 10.59C897.14 10.59 894.46 3.62 894.46 0C894.46 -1.68 897.23 0 900 0C903 0 906 -1.75 906 0C906 3.55 902.91 10.59 900 10.59" stroke="rgba(51, 121, 194, 0.58)" stroke-width="2"></path><path d="M1051.58 180C1051.58 171.19 1065.32 163.13 1080 163.13C1098.15 163.13 1117.24 171.14 1117.24 180C1117.24 189.05 1098.06 198.95 1080 198.95C1065.23 198.95 1051.58 189.1 1051.58 180" stroke="rgba(255, 255, 255, 1)" stroke-width="2"></path><path d="M0 198C20.27 198 77.14 290.5 77.14 360C77.14 394.98 25.38 406.96 0 406.96C-13.19 406.96 0 383.48 0 360C0 279 -18.3 198 0 198" stroke="rgba(46, 111, 217, 1)" stroke-width="2"></path><path d="M276 360C277.48 322.91 320.87 314.46 360 314.46C387.42 314.46 408.42 330.07 409.09 360C410.95 442.84 370.03 449.1 365.07 540C360.21 629.1 391.63 642.56 389.45 720C389.1 732.56 374.73 720 360 720C337.5 720 315.89 737.72 315 720C311.39 647.72 360.46 627.28 351 540C340.96 447.28 272.98 435.68 276 360" stroke="rgba(182, 219, 139, 1)" stroke-width="2"></path><path d="M860 720C860 707.14 879.9 676.8 900 676.8C920.27 676.8 940.75 707.19 940.75 720C940.75 728.79 920.38 720 900 720C880 720 860 728.74 860 720" stroke="rgba(46, 111, 217, 1)" stroke-width="2"></path><path d="M1197.14 720C1197.14 700.07 1223.79 652.88 1260 652.88C1311.79 652.88 1373.14 701.96 1373.14 720C1373.14 735.52 1316.57 720 1260 720C1228.57 720 1197.14 733.63 1197.14 720" stroke="rgba(117, 127, 235, 1)" stroke-width="2"></path></g><defs><mask id="SvgjsMask1007"><rect width="1440" height="720" fill="#ffffff"></rect></mask></defs></svg>